<svg width="41" height="40" viewBox="0 0 41 40" fill="none" xmlns="http://www.w3.org/2000/svg">
<rect x="0.5" width="40" height="40" rx="4" fill="#EFF2FB"/>
<g clip-path="url(#clip0_3_2978)">
<path d="M24.4045 21.0506L22.2832 23.1719L28.2794 29.1681L30.4007 27.0468L24.4045 21.0506Z" fill="black"/>
<path d="M25.9996 17.9998C27.9296 17.9998 29.4996 16.4298 29.4996 14.4998C29.4996 13.9198 29.3396 13.3798 29.0896 12.8998L26.3896 15.5998L24.8996 14.1098L27.5996 11.4098C27.1196 11.1598 26.5796 10.9998 25.9996 10.9998C24.0696 10.9998 22.4996 12.5698 22.4996 14.4998C22.4996 14.9098 22.5796 15.2998 22.7096 15.6598L20.8596 17.5098L19.0796 15.7298L19.7896 15.0198L18.3796 13.6098L20.4996 11.4898C19.3296 10.3198 17.4296 10.3198 16.2596 11.4898L12.7196 15.0298L14.1296 16.4398H11.3096L10.5996 17.1498L14.1396 20.6898L14.8496 19.9798V17.1498L16.2596 18.5598L16.9696 17.8498L18.7496 19.6298L11.3396 27.0398L13.4596 29.1598L24.8396 17.7898C25.1996 17.9198 25.5896 17.9998 25.9996 17.9998Z" fill="black"/>
</g>
<defs>
<clipPath id="clip0_3_2978">
<rect width="24" height="24" fill="white" transform="translate(8.5 8)"/>
</clipPath>
</defs>
</svg>
