<svg width="41" height="40" viewBox="0 0 41 40" fill="none" xmlns="http://www.w3.org/2000/svg">
<rect x="0.5" width="40" height="40" rx="4" fill="#EDF1FF"/>
<path d="M21.55 24.2502H19.67C18.34 24.2502 17.25 23.1302 17.25 21.7502C17.25 21.3402 17.59 21.0002 18 21.0002C18.41 21.0002 18.75 21.3402 18.75 21.7502C18.75 22.3002 19.16 22.7502 19.67 22.7502H21.55C21.94 22.7502 22.25 22.4002 22.25 21.9702C22.25 21.4302 22.1 21.3502 21.76 21.2302L18.75 20.1802C18.11 19.9602 17.25 19.4902 17.25 18.0202C17.25 16.7702 18.24 15.7402 19.45 15.7402H21.33C22.66 15.7402 23.75 16.8602 23.75 18.2402C23.75 18.6502 23.41 18.9902 23 18.9902C22.59 18.9902 22.25 18.6502 22.25 18.2402C22.25 17.6902 21.84 17.2402 21.33 17.2402H19.45C19.06 17.2402 18.75 17.5902 18.75 18.0202C18.75 18.5602 18.9 18.6402 19.24 18.7602L22.25 19.8102C22.89 20.0302 23.75 20.5002 23.75 21.9702C23.75 23.2302 22.76 24.2502 21.55 24.2502Z" fill="#292D32"/>
<path d="M20.5 25.25C20.09 25.25 19.75 24.91 19.75 24.5V15.5C19.75 15.09 20.09 14.75 20.5 14.75C20.91 14.75 21.25 15.09 21.25 15.5V24.5C21.25 24.91 20.91 25.25 20.5 25.25Z" fill="#292D32"/>
<path d="M20.5 30.75C14.57 30.75 9.75 25.93 9.75 20C9.75 14.07 14.57 9.25 20.5 9.25C20.91 9.25 21.25 9.59 21.25 10C21.25 10.41 20.91 10.75 20.5 10.75C15.4 10.75 11.25 14.9 11.25 20C11.25 25.1 15.4 29.25 20.5 29.25C25.6 29.25 29.75 25.1 29.75 20C29.75 19.59 30.09 19.25 30.5 19.25C30.91 19.25 31.25 19.59 31.25 20C31.25 25.93 26.43 30.75 20.5 30.75Z" fill="#292D32"/>
<path d="M29.5 15.75H25.5C25.09 15.75 24.75 15.41 24.75 15V11C24.75 10.59 25.09 10.25 25.5 10.25C25.91 10.25 26.25 10.59 26.25 11V14.25H29.5C29.91 14.25 30.25 14.59 30.25 15C30.25 15.41 29.91 15.75 29.5 15.75Z" fill="#292D32"/>
<path d="M25.4999 15.7499C25.3099 15.7499 25.1199 15.6799 24.9699 15.5299C24.6799 15.2399 24.6799 14.7599 24.9699 14.4699L29.9699 9.46994C30.2599 9.17994 30.7399 9.17994 31.0299 9.46994C31.3199 9.75994 31.3199 10.2399 31.0299 10.5299L26.0299 15.5299C25.8799 15.6799 25.6899 15.7499 25.4999 15.7499Z" fill="#292D32"/>
</svg>
