<svg width="128" height="168" viewBox="0 0 128 168" fill="none" xmlns="http://www.w3.org/2000/svg">
<path d="M64 128C72.8 128 80 120.8 80 112C80 103.2 72.8 96 64 96C55.2 96 48 103.2 48 112C48 120.8 55.2 128 64 128ZM112 56H104V40C104 17.92 86.08 0 64 0C41.92 0 24 17.92 24 40V56H16C7.2 56 0 63.2 0 72V152C0 160.8 7.2 168 16 168H112C120.8 168 128 160.8 128 152V72C128 63.2 120.8 56 112 56ZM39.2 40C39.2 26.32 50.32 15.2 64 15.2C77.68 15.2 88.8 26.32 88.8 40V56H39.2V40ZM112 152H16V72H112V152Z" fill="#1F2A47"/>
</svg>
