<svg width="40" height="40" viewBox="0 0 40 40" fill="none" xmlns="http://www.w3.org/2000/svg">
<rect width="40" height="40" rx="4" fill="#EFF2FB"/>
<g clip-path="url(#clip0_3_2988)">
<path d="M18 20C20.21 20 22 18.21 22 16C22 13.79 20.21 12 18 12C15.79 12 14 13.79 14 16C14 18.21 15.79 20 18 20ZM18 14C19.1 14 20 14.9 20 16C20 17.1 19.1 18 18 18C16.9 18 16 17.1 16 16C16 14.9 16.9 14 18 14Z" fill="black"/>
<path d="M12 26C12.22 25.28 15.31 24 18 24C18 23.3 18.13 22.63 18.35 22.01C15.62 21.91 10 23.27 10 26V28H19.54C19.02 27.42 18.61 26.75 18.35 26H12Z" fill="black"/>
<path d="M27.43 26.02C27.79 25.43 28 24.74 28 24C28 21.79 26.21 20 24 20C21.79 20 20 21.79 20 24C20 26.21 21.79 28 24 28C24.74 28 25.43 27.78 26.02 27.43C26.95 28.36 27.64 29.05 28.59 30L30 28.59C28.5 27.09 29.21 27.79 27.43 26.02ZM24 26C22.9 26 22 25.1 22 24C22 22.9 22.9 22 24 22C25.1 22 26 22.9 26 24C26 25.1 25.1 26 24 26Z" fill="black"/>
</g>
<defs>
<clipPath id="clip0_3_2988">
<rect width="24" height="24" fill="white" transform="translate(8 8)"/>
</clipPath>
</defs>
</svg>
