<svg width="33" height="32" viewBox="0 0 33 32" fill="none" xmlns="http://www.w3.org/2000/svg">
<path d="M12.4993 23.6665C11.9526 23.6665 11.4993 23.2132 11.4993 22.6665V17.0798L10.5393 18.0398C10.1526 18.4265 9.5126 18.4265 9.12594 18.0398C8.73927 17.6532 8.73927 17.0132 9.12594 16.6265L11.7926 13.9598C12.0726 13.6798 12.5126 13.5865 12.8859 13.7465C13.2593 13.8932 13.4993 14.2665 13.4993 14.6665V22.6665C13.4993 23.2132 13.0459 23.6665 12.4993 23.6665Z" fill="#787878"/>
<path d="M15.1672 18.3333C14.9139 18.3333 14.6606 18.2399 14.4606 18.0399L11.7939 15.3733C11.4072 14.9866 11.4072 14.3466 11.7939 13.9599C12.1806 13.5733 12.8206 13.5733 13.2072 13.9599L15.8739 16.6266C16.2606 17.0133 16.2606 17.6533 15.8739 18.0399C15.6739 18.2399 15.4206 18.3333 15.1672 18.3333Z" fill="#787878"/>
<path d="M20.4993 30.3332H12.4993C5.25935 30.3332 2.16602 27.2398 2.16602 19.9998V11.9998C2.16602 4.75984 5.25935 1.6665 12.4993 1.6665H19.166C19.7127 1.6665 20.166 2.11984 20.166 2.6665C20.166 3.21317 19.7127 3.6665 19.166 3.6665H12.4993C6.35268 3.6665 4.16602 5.85317 4.16602 11.9998V19.9998C4.16602 26.1465 6.35268 28.3332 12.4993 28.3332H20.4993C26.646 28.3332 28.8327 26.1465 28.8327 19.9998V13.3332C28.8327 12.7865 29.286 12.3332 29.8327 12.3332C30.3794 12.3332 30.8327 12.7865 30.8327 13.3332V19.9998C30.8327 27.2398 27.7393 30.3332 20.4993 30.3332Z" fill="#787878"/>
<path d="M29.8327 14.3332H24.4993C19.9393 14.3332 18.166 12.5598 18.166 7.99982V2.66649C18.166 2.26649 18.406 1.89316 18.7793 1.74649C19.1527 1.58649 19.5793 1.67982 19.8727 1.95982L30.5394 12.6265C30.8194 12.9065 30.9127 13.3465 30.7527 13.7198C30.5927 14.0932 30.2327 14.3332 29.8327 14.3332ZM20.166 5.07982V7.99982C20.166 11.4398 21.0593 12.3332 24.4993 12.3332H27.4193L20.166 5.07982Z" fill="#787878"/>
</svg>
